<!-- Generated by IcoMoon.io -->
<svg version="1.1" xmlns="http://www.w3.org/2000/svg" width="4301" height="1024" viewBox="0 0 4301 1024">
<g id="icomoon-ignore">
</g>
<path d="M206.743 819.011h279.502v-72.643h-279.502v72.643zM232.469 411.303h207.554c5.999 0 11.246-2.252 15.743-6.756s6.746-9.759 6.746-15.764c0-6.012-2.249-11.301-6.746-15.867-4.497-4.559-9.744-6.839-15.743-6.839h-207.554c-6.199 0-11.54 2.269-16.023 6.808s-6.725 9.838-6.725 15.899c0 6.054 2.242 11.322 6.725 15.805 4.483 4.476 9.824 6.714 16.023 6.714zM232.469 305.794h207.554c5.999 0 11.246-2.242 15.743-6.725s6.746-9.779 6.746-15.888c0-6.116-2.249-11.416-6.746-15.899s-9.744-6.725-15.743-6.725h-207.554c-6.199 0-11.54 2.252-16.023 6.756-4.483 4.497-6.725 9.744-6.725 15.743 0 6.192 2.242 11.529 6.725 16.012s9.824 6.725 16.023 6.725zM631.286 463.192v-66.977h98.565v-120.558h-98.565v-66.988h94.838c18.12 0 33.859 6.098 47.212 18.296 13.343 12.19 20.849 27.096 22.508 44.718v31.133h92.155c9.436 0 17.398 3.248 23.89 9.744 6.482 6.496 9.723 14.47 9.723 23.921 0 8.932-3.241 16.718-9.723 23.36-6.492 6.635-14.454 9.952-23.89 9.952h-92.652v31.133c-1.654 17.455-9.119 32.198-22.395 44.23-13.276 12.024-28.887 18.036-46.828 18.036h-94.838zM465.489 679.388h-66.977v-195.441h166.045v-296.034h-352.843c-29.058 0-53.618 10.032-73.681 30.095s-30.095 44.624-30.095 73.681v88.48c0 29.058 10.032 53.618 30.095 73.681s44.624 30.095 73.681 30.095h83.022v195.441h-67.237v-128.701h-20.755c-46.153-1.162-85.367-18.33-117.642-51.505-32.267-33.181-48.401-72.851-48.401-119.011v-88.48c0-46.935 16.746-87.169 50.238-120.702 33.485-33.534 73.744-50.301 120.775-50.301h348.619c19.681 0 36.429 6.905 50.237 20.714s20.716 30.555 20.716 50.238v288.593c0 19.676-6.907 36.422-20.716 50.236s-30.556 20.716-50.237 20.716h-94.843v128.205zM192.671 886.246c-14.819 0-27.342-5.192-37.567-15.575s-15.338-22.912-15.338-37.576v-100.803c0-14.694 5.113-27.182 15.338-37.473 10.225-10.286 22.748-15.432 37.567-15.432h307.646c14.771 0 27.32 5.146 37.652 15.432 10.332 10.291 15.503 22.779 15.503 37.473v100.803c0 14.664-5.171 27.192-15.503 37.576s-22.881 15.575-37.652 15.575h-307.646z"></path>
<path d="M4140.621 283.747v377.204c0 18.724 4.808 32.384 14.418 40.986 10.122 8.602 23.532 12.902 40.228 12.902 13.66 0 25.549-2.022 35.671-6.072 10.117-4.552 19.482-10.624 28.083-18.217l18.212 59.203c-11.638 10.117-26.056 18.212-43.259 24.284-16.696 5.565-35.42 8.351-56.166 8.351-21.755 0-41.743-3.543-59.955-10.624-18.217-7.086-32.384-18.468-42.501-34.156-10.122-16.189-15.437-37.192-15.939-62.996v-368.095l81.208-22.769zM4271.16 395.315v63.753h-284.611v-63.753h284.611z"></path>
<path d="M3679.299 395.315l107.013 162.417 15.176 2.278 154.071 214.789h-96.389l-111.565-166.973-17.459-6.072-148.756-206.439h97.91zM3953.28 395.315l-148.756 203.403-16.696-0.758-121.431 176.84h-92.595l161.659-216.305 15.939 1.516 108.534-164.696h93.348z"></path>
<path d="M3371.459 782.387c-37.949 0-71.342-7.844-100.183-23.526-28.841-15.688-51.359-38.205-67.548-67.548-15.683-29.855-23.526-65.275-23.526-106.255 0-40.986 7.844-76.151 23.526-105.498 16.189-29.853 38.456-52.621 66.79-68.307s60.462-23.528 96.389-23.528c36.936 0 68.306 7.59 94.111 22.769s45.537 35.924 59.197 62.235c13.66 26.311 20.495 56.162 20.495 89.56 0 9.103-0.256 17.705-0.763 25.805-0.502 8.095-1.265 15.176-2.273 21.248h-305.106v-62.234h269.435l-40.228 12.145c0-34.406-8.602-60.719-25.805-78.934-17.203-18.721-40.73-28.082-70.584-28.082-21.755 0-40.73 5.060-56.919 15.179-16.195 10.12-28.59 25.299-37.192 45.536-8.602 19.732-12.902 44.022-12.902 72.863 0 28.334 4.552 52.367 13.66 72.1s22.011 34.662 38.707 44.78c16.696 10.122 36.434 15.181 59.203 15.181 25.298 0 45.788-4.808 61.476-14.423 15.683-9.61 28.078-23.020 37.187-40.223l64.512 30.356c-9.108 18.217-21.504 34.156-37.187 47.816-15.181 13.158-33.398 23.276-54.646 30.362-21.253 7.081-44.529 10.624-69.827 10.624z"></path>
<path d="M3080.402 273.881v500.919h-96.389l-193.536-315.731-48.573-88.799h-0.763l3.036 81.209v323.321h-74.378v-500.919h95.631l192.778 314.971 49.331 90.317h0.758l-3.036-81.966v-323.321h75.141z"></path>
<path d="M2508.508 224.548v443.996c0 18.719 3.292 31.621 9.866 38.707 6.579 7.081 17.459 10.624 32.635 10.624 9.108 0 16.701-0.507 22.769-1.521 6.579-1.516 14.674-4.045 24.289-7.588l-9.108 60.718c-8.602 4.045-18.468 7.081-29.599 9.108-11.131 2.529-22.262 3.794-33.393 3.794-33.905 0-58.947-8.602-75.141-25.805-15.683-17.71-23.526-44.78-23.526-81.208v-450.826h81.208z"></path>
<path d="M2146.78 387.725c36.941 0 69.576 7.843 97.91 23.528s50.345 38.454 66.028 68.307c16.195 29.347 24.289 64.512 24.289 105.498 0 40.98-8.095 76.401-24.289 106.255-15.683 29.343-37.693 51.86-66.028 67.548-28.334 15.683-60.969 23.526-97.91 23.526-36.936 0-69.571-7.844-97.905-23.526-28.334-15.688-50.596-38.205-66.79-67.548-16.189-29.855-24.284-65.275-24.284-106.255 0-40.986 8.095-76.151 24.284-105.498 16.195-29.853 38.456-52.621 66.79-68.307s60.969-23.528 97.905-23.528zM2146.78 451.478c-22.769 0-42.245 5.313-58.44 15.938-15.683 10.12-27.827 25.046-36.429 44.778s-12.902 44.022-12.902 72.863c0 28.334 4.301 52.618 12.902 72.858 8.602 19.732 20.746 34.913 36.429 45.537 16.195 10.122 35.671 15.181 58.44 15.181s41.999-5.059 57.682-15.181c15.688-10.624 27.832-25.805 36.434-45.537 8.602-20.239 12.902-44.524 12.902-72.858 0-28.841-4.301-53.13-12.902-72.863s-20.746-34.659-36.434-44.778c-15.683-10.625-34.913-15.938-57.682-15.938z"></path>
<path d="M1699.282 387.725c36.936 0 69.571 7.843 97.905 23.528 28.339 15.686 50.345 38.454 66.033 68.307 16.189 29.347 24.284 64.512 24.284 105.498 0 40.98-8.095 76.401-24.284 106.255-15.688 29.343-37.693 51.86-66.033 67.548-28.334 15.683-60.969 23.526-97.905 23.526s-69.571-7.844-97.905-23.526c-28.334-15.688-50.601-38.205-66.79-67.548-16.189-29.855-24.289-65.275-24.289-106.255 0-40.986 8.1-76.151 24.289-105.498 16.189-29.853 38.456-52.621 66.79-68.307s60.969-23.528 97.905-23.528zM1699.282 451.478c-22.769 0-42.25 5.313-58.44 15.938-15.688 10.12-27.827 25.046-36.429 44.778s-12.902 44.022-12.902 72.863c0 28.334 4.301 52.618 12.902 72.858 8.602 19.732 20.741 34.913 36.429 45.537 16.189 10.122 35.671 15.181 58.44 15.181s41.994-5.059 57.682-15.181c15.683-10.624 27.827-25.805 36.429-45.537 8.602-20.239 12.902-44.524 12.902-72.858 0-28.841-4.301-53.13-12.902-72.863s-20.746-34.659-36.429-44.778c-15.688-10.625-34.913-15.938-57.682-15.938z"></path>
<path d="M1535.611 273.881v69.825h-171.525v431.094h-81.208v-431.094h-171.525v-69.825h424.259z"></path>
</svg>
