<svg aria-hidden="true" style="position: absolute; width: 0; height: 0; overflow: hidden;" version="1.1" xmlns="http://www.w3.org/2000/svg" xmlns:xlink="http://www.w3.org/1999/xlink">
<defs>
<symbol id="icon-AlternateFalse" viewBox="0 0 134 32">
<path d="M6.461 25.594h8.734v-2.27h-8.734v2.27zM7.265 12.853h6.486c0.187 0 0.351-0.070 0.492-0.211s0.211-0.305 0.211-0.493c0-0.188-0.070-0.353-0.211-0.496s-0.304-0.214-0.492-0.214h-6.486c-0.194 0-0.361 0.071-0.501 0.213s-0.21 0.307-0.21 0.497c0 0.189 0.070 0.354 0.21 0.494s0.307 0.21 0.501 0.21zM7.265 9.556h6.486c0.187 0 0.351-0.070 0.492-0.21s0.211-0.306 0.211-0.496c0-0.191-0.070-0.357-0.211-0.497s-0.304-0.21-0.492-0.21h-6.486c-0.194 0-0.361 0.070-0.501 0.211s-0.21 0.305-0.21 0.492c0 0.194 0.070 0.36 0.21 0.5s0.307 0.21 0.501 0.21zM19.728 14.475v-2.093h3.080v-3.767h-3.080v-2.093h2.964c0.566 0 1.058 0.191 1.475 0.572s0.652 0.847 0.703 1.397v0.973h2.88c0.295 0 0.544 0.101 0.747 0.305s0.304 0.452 0.304 0.748c0 0.279-0.101 0.522-0.304 0.73s-0.452 0.311-0.747 0.311h-2.895v0.973c-0.052 0.545-0.285 1.006-0.7 1.382s-0.903 0.564-1.463 0.564h-2.964zM14.547 21.231h-2.093v-6.108h5.189v-9.251h-11.026c-0.908 0-1.676 0.314-2.303 0.94s-0.94 1.394-0.94 2.303v2.765c0 0.908 0.313 1.676 0.94 2.303s1.394 0.94 2.303 0.94h2.594v6.108h-2.101v-4.022h-0.649c-1.442-0.036-2.668-0.573-3.676-1.61s-1.513-2.277-1.513-3.719v-2.765c0-1.467 0.523-2.724 1.57-3.772s2.304-1.572 3.774-1.572h10.894c0.615 0 1.138 0.216 1.57 0.647s0.647 0.955 0.647 1.57v9.019c0 0.615-0.216 1.138-0.647 1.57s-0.955 0.647-1.57 0.647h-2.964v4.006zM6.021 27.695c-0.463 0-0.854-0.162-1.174-0.487s-0.479-0.716-0.479-1.174v-3.15c0-0.459 0.16-0.849 0.479-1.171s0.711-0.482 1.174-0.482h9.614c0.462 0 0.854 0.161 1.177 0.482s0.484 0.712 0.484 1.171v3.15c0 0.458-0.162 0.85-0.484 1.174s-0.715 0.487-1.177 0.487h-9.614z"></path>
<path d="M129.394 8.867v11.788c0 0.585 0.15 1.012 0.451 1.281 0.316 0.269 0.735 0.403 1.257 0.403 0.427 0 0.798-0.063 1.115-0.19 0.316-0.142 0.609-0.332 0.878-0.569l0.569 1.85c-0.364 0.316-0.814 0.569-1.352 0.759-0.522 0.174-1.107 0.261-1.755 0.261-0.68 0-1.304-0.111-1.874-0.332s-1.012-0.577-1.328-1.067c-0.316-0.506-0.482-1.162-0.498-1.969v-11.503l2.538-0.712zM133.474 12.354v1.992h-8.894v-1.992h8.894z"></path>
<path d="M114.978 12.354l3.344 5.076 0.474 0.071 4.815 6.712h-3.012l-3.486-5.218-0.546-0.19-4.649-6.451h3.060zM123.54 12.354l-4.649 6.356-0.522-0.024-3.795 5.526h-2.894l5.052-6.76 0.498 0.047 3.392-5.147h2.917z"></path>
<path d="M105.358 24.45c-1.186 0-2.229-0.245-3.131-0.735s-1.605-1.194-2.111-2.111c-0.49-0.933-0.735-2.040-0.735-3.32s0.245-2.38 0.735-3.297c0.506-0.933 1.202-1.644 2.087-2.135s1.889-0.735 3.012-0.735c1.154 0 2.135 0.237 2.941 0.712s1.423 1.123 1.85 1.945c0.427 0.822 0.64 1.755 0.64 2.799 0 0.284-0.008 0.553-0.024 0.806s-0.040 0.474-0.071 0.664h-9.535v-1.945h8.42l-1.257 0.38c0-1.075-0.269-1.897-0.806-2.467-0.538-0.585-1.273-0.878-2.206-0.878-0.68 0-1.273 0.158-1.779 0.474s-0.893 0.791-1.162 1.423c-0.269 0.617-0.403 1.376-0.403 2.277 0 0.885 0.142 1.636 0.427 2.253s0.688 1.083 1.21 1.399c0.522 0.316 1.139 0.474 1.85 0.474 0.791 0 1.431-0.15 1.921-0.451s0.877-0.719 1.162-1.257l2.016 0.949c-0.285 0.569-0.672 1.067-1.162 1.494-0.474 0.411-1.044 0.727-1.708 0.949s-1.392 0.332-2.182 0.332z"></path>
<path d="M96.263 8.559v15.654h-3.012l-6.048-9.867-1.518-2.775h-0.024l0.095 2.538v10.104h-2.324v-15.654h2.988l6.024 9.843 1.542 2.822h0.024l-0.095-2.561v-10.104h2.348z"></path>
<path d="M78.391 7.017v13.875c0 0.585 0.103 0.988 0.308 1.21s0.546 0.332 1.020 0.332c0.285 0 0.522-0.016 0.712-0.048 0.206-0.047 0.459-0.126 0.759-0.237l-0.285 1.897c-0.269 0.126-0.577 0.221-0.925 0.285-0.348 0.079-0.696 0.119-1.044 0.119-1.060 0-1.842-0.269-2.348-0.806-0.49-0.553-0.735-1.399-0.735-2.538v-14.088h2.538z"></path>
<path d="M67.087 12.116c1.154 0 2.174 0.245 3.060 0.735s1.573 1.202 2.063 2.135c0.506 0.917 0.759 2.016 0.759 3.297s-0.253 2.388-0.759 3.32c-0.49 0.917-1.178 1.621-2.063 2.111s-1.905 0.735-3.060 0.735c-1.154 0-2.174-0.245-3.060-0.735s-1.581-1.194-2.087-2.111c-0.506-0.933-0.759-2.040-0.759-3.32s0.253-2.38 0.759-3.297c0.506-0.933 1.202-1.644 2.087-2.135s1.905-0.735 3.060-0.735zM67.087 14.109c-0.712 0-1.32 0.166-1.826 0.498-0.49 0.316-0.87 0.783-1.138 1.399s-0.403 1.376-0.403 2.277c0 0.885 0.134 1.644 0.403 2.277 0.269 0.617 0.648 1.091 1.138 1.423 0.506 0.316 1.115 0.474 1.826 0.474s1.312-0.158 1.803-0.474c0.49-0.332 0.87-0.806 1.139-1.423 0.269-0.632 0.403-1.391 0.403-2.277 0-0.901-0.134-1.66-0.403-2.277s-0.648-1.083-1.139-1.399c-0.49-0.332-1.091-0.498-1.803-0.498z"></path>
<path d="M53.103 12.116c1.154 0 2.174 0.245 3.060 0.735s1.573 1.202 2.064 2.135c0.506 0.917 0.759 2.016 0.759 3.297s-0.253 2.388-0.759 3.32c-0.49 0.917-1.178 1.621-2.064 2.111s-1.905 0.735-3.060 0.735-2.174-0.245-3.060-0.735c-0.885-0.49-1.581-1.194-2.087-2.111-0.506-0.933-0.759-2.040-0.759-3.32s0.253-2.38 0.759-3.297c0.506-0.933 1.202-1.644 2.087-2.135s1.905-0.735 3.060-0.735zM53.103 14.109c-0.712 0-1.32 0.166-1.826 0.498-0.49 0.316-0.87 0.783-1.138 1.399s-0.403 1.376-0.403 2.277c0 0.885 0.134 1.644 0.403 2.277 0.269 0.617 0.648 1.091 1.138 1.423 0.506 0.316 1.115 0.474 1.826 0.474s1.312-0.158 1.803-0.474c0.49-0.332 0.87-0.806 1.138-1.423 0.269-0.632 0.403-1.391 0.403-2.277 0-0.901-0.134-1.66-0.403-2.277s-0.648-1.083-1.138-1.399c-0.49-0.332-1.091-0.498-1.803-0.498z"></path>
<path d="M47.988 8.559v2.182h-5.36v13.472h-2.538v-13.472h-5.36v-2.182h13.258z"></path>
</symbol>
</defs>
</svg>
