<svg aria-hidden="true" style="position: absolute; width: 0; height: 0; overflow: hidden;" version="1.1" xmlns="http://www.w3.org/2000/svg" xmlns:xlink="http://www.w3.org/1999/xlink">
<defs>
<symbol id="icon-arrow_back" viewBox="0 0 32 32">
<path stroke-linejoin="miter" stroke-linecap="butt" stroke-miterlimit="4" stroke-width="1.3333" d="M16.010 6.249c0.114 0 0.212 0.035 0.322 0.145 0.11 0.115 0.145 0.217 0.145 0.332-0 0.116-0.035 0.214-0.145 0.324l-8.482 8.482h17.88c0.162 0 0.262 0.047 0.348 0.132 0.083 0.082 0.129 0.177 0.129 0.337s-0.046 0.255-0.129 0.337c-0.085 0.084-0.186 0.131-0.348 0.132h-17.88l8.474 8.473c0.11 0.11 0.147 0.212 0.148 0.335v0.001c0.001 0.089-0.019 0.167-0.074 0.246l-0.069 0.082c-0.107 0.108-0.204 0.143-0.323 0.142-0.126-0.001-0.23-0.041-0.341-0.151l-9.264-9.264c-0.071-0.072-0.105-0.128-0.121-0.167v-0.001c-0.020-0.048-0.031-0.102-0.031-0.165s0.012-0.116 0.031-0.163v-0.001c0.016-0.038 0.050-0.095 0.121-0.167l9.267-9.267c0.121-0.116 0.227-0.152 0.342-0.152z"></path>
</symbol>
<symbol id="icon-arrow_back_ios_new" viewBox="0 0 32 32">
<path d="M12.474 16l10.404 10.404c0.266 0.271 0.4 0.61 0.402 1.016s-0.131 0.756-0.402 1.050c-0.293 0.288-0.643 0.432-1.050 0.432s-0.754-0.144-1.042-0.432l-10.879-10.879c-0.227-0.227-0.391-0.478-0.493-0.754s-0.153-0.555-0.153-0.837 0.051-0.561 0.153-0.837c0.102-0.276 0.266-0.528 0.493-0.754l10.912-10.904c0.288-0.293 0.628-0.436 1.021-0.427s0.738 0.159 1.037 0.452c0.266 0.293 0.404 0.638 0.415 1.033s-0.127 0.74-0.415 1.033l-10.404 10.404z"></path>
</symbol>
<symbol id="icon-arrow_forward" viewBox="0 0 32 32">
<path stroke-linejoin="miter" stroke-linecap="butt" stroke-miterlimit="4" stroke-width="1.3333" d="M15.993 6.253c0.095 0.001 0.177 0.023 0.259 0.081l0.082 0.070 9.264 9.264c0.071 0.072 0.105 0.128 0.121 0.167v0.001c0.020 0.048 0.031 0.102 0.031 0.165s-0.012 0.116-0.031 0.163v0.001c-0.016 0.038-0.050 0.094-0.121 0.167l-9.272 9.264c-0.122 0.12-0.227 0.155-0.337 0.155-0.108-0-0.204-0.033-0.315-0.147l-0.007-0.007-0.069-0.081c-0.056-0.079-0.075-0.157-0.075-0.243s0.020-0.163 0.075-0.242l0.069-0.081 8.482-8.482h-17.88c-0.163-0-0.259-0.047-0.34-0.128h-0.001c-0.081-0.081-0.128-0.179-0.128-0.341s0.046-0.26 0.128-0.341h0.001c0.081-0.081 0.177-0.127 0.34-0.128h17.88l-8.474-8.474c-0.082-0.082-0.124-0.16-0.141-0.246l-0.008-0.090c-0.001-0.12 0.034-0.218 0.141-0.326l0.001-0.001c0.107-0.107 0.205-0.143 0.324-0.142z"></path>
</symbol>
<symbol id="icon-arrow_forward_ios" viewBox="0 0 32 32">
<path d="M19.509 15.933l-10.404-10.404c-0.271-0.271-0.408-0.609-0.41-1.012s0.131-0.75 0.402-1.038c0.293-0.293 0.643-0.44 1.050-0.44s0.754 0.147 1.042 0.44l10.879 10.863c0.227 0.227 0.391 0.478 0.493 0.754s0.153 0.555 0.153 0.837-0.051 0.561-0.153 0.837c-0.102 0.276-0.266 0.528-0.493 0.754l-10.904 10.904c-0.293 0.293-0.636 0.435-1.029 0.423s-0.736-0.163-1.029-0.457c-0.271-0.293-0.412-0.636-0.423-1.029s0.13-0.736 0.423-1.029l10.404-10.404z"></path>
</symbol>
<symbol id="icon-checkbook" viewBox="0 0 32 32">
<path d="M8.93 19.78h9.826c0.332 0 0.581-0.103 0.748-0.311s0.25-0.435 0.25-0.683c0-0.248-0.083-0.478-0.25-0.689s-0.416-0.317-0.748-0.317h-9.826c-0.282 0-0.519 0.097-0.711 0.289s-0.287 0.432-0.287 0.717c0 0.285 0.096 0.522 0.287 0.711s0.429 0.283 0.711 0.283zM8.932 13.903h5.7c0.283 0 0.521-0.096 0.712-0.289s0.288-0.431 0.288-0.717c0-0.285-0.096-0.522-0.288-0.711s-0.429-0.283-0.712-0.283h-5.7c-0.283 0-0.521 0.096-0.713 0.289s-0.287 0.432-0.287 0.717c0 0.285 0.096 0.522 0.287 0.711s0.429 0.283 0.713 0.283zM4.738 25.437c-0.63 0-1.166-0.221-1.608-0.663s-0.663-0.978-0.663-1.608v-14.515c0-0.632 0.221-1.17 0.663-1.614s0.978-0.665 1.608-0.665h22.523c0.632 0 1.17 0.222 1.614 0.665s0.665 0.981 0.665 1.614v3.173c0 0.32-0.111 0.59-0.334 0.808s-0.495 0.327-0.816 0.327c-0.322 0-0.59-0.109-0.806-0.327s-0.323-0.488-0.323-0.808v-3.173h-22.523v14.482h9.928c0.32 0 0.59 0.11 0.808 0.329s0.328 0.49 0.328 0.812-0.109 0.597-0.328 0.823c-0.218 0.227-0.488 0.34-0.808 0.34h-9.928zM30.683 15.888c0.143 0.143 0.214 0.318 0.214 0.524s-0.073 0.38-0.218 0.52l-1.205 1.213-1.858-1.858 1.276-1.284c0.133-0.138 0.284-0.207 0.454-0.207s0.321 0.069 0.454 0.207l0.884 0.884zM28.583 19.037l-8.767 8.767c-0.123 0.122-0.251 0.208-0.382 0.257s-0.267 0.075-0.407 0.075h-0.846c-0.149 0-0.281-0.057-0.394-0.17s-0.17-0.245-0.17-0.394v-0.838c0-0.14 0.026-0.276 0.078-0.408s0.14-0.259 0.261-0.38l8.767-8.767 1.858 1.858z"></path>
</symbol>
<symbol id="icon-close" viewBox="0 0 32 32">
<path stroke-linejoin="miter" stroke-linecap="butt" stroke-miterlimit="4" stroke-width="1.3333" d="M23.466 7.9c0.219 0 0.355 0.065 0.462 0.172s0.172 0.242 0.172 0.461c0 0.219-0.065 0.355-0.172 0.462l-7.005 7.005 7.005 7.004c0.107 0.107 0.172 0.243 0.172 0.462s-0.065 0.355-0.172 0.462-0.243 0.172-0.462 0.172c-0.219-0-0.355-0.065-0.462-0.172l-7.004-7.005-7.005 7.005c-0.107 0.107-0.243 0.172-0.462 0.172s-0.354-0.065-0.461-0.172c-0.107-0.107-0.172-0.243-0.172-0.462s0.065-0.355 0.172-0.462l7.004-7.004-7.004-7.005c-0.107-0.107-0.172-0.243-0.172-0.462s0.065-0.354 0.172-0.461 0.242-0.172 0.461-0.172c0.219 0 0.355 0.065 0.462 0.172l7.005 7.004 7.004-7.004c0.107-0.107 0.243-0.172 0.462-0.172z"></path>
</symbol>
<symbol id="icon-delete" viewBox="0 0 32 32">
<path d="M8.637 28.199c-0.632 0-1.17-0.221-1.614-0.663s-0.665-0.978-0.665-1.608v-18.865h-0.367c-0.321 0-0.59-0.11-0.808-0.329s-0.327-0.49-0.327-0.812c0-0.322 0.109-0.591 0.327-0.806s0.488-0.323 0.808-0.323h5.474c0-0.326 0.109-0.598 0.328-0.816s0.488-0.327 0.808-0.327h6.792c0.32 0 0.59 0.111 0.808 0.332s0.327 0.492 0.327 0.812h5.482c0.321 0 0.59 0.11 0.808 0.329s0.327 0.49 0.327 0.812c0 0.322-0.109 0.591-0.327 0.807s-0.488 0.323-0.808 0.323h-0.367v18.865c0 0.63-0.222 1.166-0.665 1.608s-0.981 0.663-1.614 0.663h-14.727zM23.364 7.064h-14.727v18.865h14.727v-18.865zM13.204 23.125c0.304 0 0.556-0.103 0.759-0.308s0.303-0.458 0.303-0.755v-11.173c0-0.298-0.103-0.549-0.31-0.755s-0.46-0.309-0.759-0.309c-0.306 0-0.56 0.103-0.763 0.309s-0.303 0.457-0.303 0.755v11.173c0 0.298 0.103 0.55 0.309 0.755s0.461 0.308 0.765 0.308zM18.815 23.125c0.3 0 0.552-0.103 0.757-0.308s0.307-0.458 0.307-0.755v-11.173c0-0.298-0.104-0.549-0.312-0.755s-0.463-0.309-0.764-0.309c-0.302 0-0.555 0.103-0.76 0.309s-0.307 0.457-0.307 0.755v11.173c0 0.298 0.105 0.55 0.315 0.755s0.465 0.308 0.765 0.308z"></path>
</symbol>
<symbol id="icon-Facebook" viewBox="0 0 32 32">
<path d="M29.333 16.405c0-7.409-5.969-13.415-13.333-13.415s-13.333 6.006-13.333 13.415c0 6.696 4.876 12.245 11.25 13.252v-9.374h-3.385v-3.878h3.385v-2.955c0-3.362 1.991-5.219 5.036-5.219 1.459 0 2.985 0.262 2.985 0.262v3.301h-1.681c-1.656 0-2.173 1.034-2.173 2.095v2.516h3.698l-0.591 3.878h-3.107v9.374c6.374-1.006 11.25-6.556 11.25-13.252z"></path>
</symbol>
<symbol id="icon-Instagram" viewBox="0 0 32 32">
<path d="M16.006 6.488c3.206 0 3.585 0.014 4.846 0.071 1.172 0.052 1.804 0.248 2.227 0.412 0.558 0.216 0.961 0.478 1.378 0.895 0.422 0.422 0.679 0.82 0.9 1.378 0.164 0.422 0.361 1.059 0.412 2.226 0.056 1.266 0.071 1.645 0.071 4.847s-0.014 3.585-0.071 4.847c-0.052 1.172-0.248 1.804-0.412 2.226-0.216 0.558-0.478 0.961-0.895 1.378-0.422 0.422-0.82 0.679-1.377 0.9-0.422 0.164-1.060 0.361-2.227 0.412-1.266 0.056-1.645 0.071-4.847 0.071s-3.585-0.014-4.847-0.071c-1.172-0.052-1.804-0.248-2.226-0.412-0.558-0.216-0.961-0.478-1.378-0.895-0.422-0.422-0.679-0.82-0.9-1.378-0.164-0.422-0.361-1.060-0.412-2.226-0.056-1.266-0.071-1.645-0.071-4.847s0.014-3.585 0.071-4.847c0.052-1.172 0.248-1.804 0.412-2.226 0.216-0.558 0.478-0.961 0.895-1.378 0.422-0.422 0.82-0.679 1.378-0.9 0.422-0.164 1.059-0.361 2.226-0.412 1.261-0.056 1.641-0.071 4.847-0.071h0.001zM16.006 4.327c-3.258 0-3.665 0.014-4.945 0.071-1.275 0.056-2.151 0.262-2.91 0.558-0.792 0.309-1.462 0.717-2.127 1.387-0.67 0.666-1.078 1.336-1.387 2.123-0.295 0.764-0.502 1.636-0.558 2.91-0.056 1.285-0.071 1.692-0.071 4.949s0.014 3.665 0.071 4.945c0.056 1.275 0.262 2.151 0.558 2.91 0.31 0.792 0.717 1.462 1.387 2.127 0.665 0.665 1.336 1.078 2.123 1.383 0.764 0.295 1.636 0.502 2.91 0.558 1.279 0.056 1.687 0.070 4.945 0.070s3.665-0.014 4.945-0.070c1.275-0.056 2.151-0.263 2.91-0.558 0.787-0.304 1.458-0.717 2.123-1.383s1.078-1.336 1.383-2.123c0.295-0.764 0.502-1.636 0.558-2.91 0.056-1.279 0.070-1.687 0.070-4.945s-0.014-3.665-0.070-4.945c-0.056-1.275-0.263-2.151-0.558-2.91-0.295-0.797-0.703-1.467-1.373-2.133-0.665-0.665-1.336-1.078-2.123-1.383-0.764-0.295-1.636-0.502-2.91-0.558-1.284-0.061-1.692-0.075-4.949-0.075l-0.001 0.001z"></path>
<path d="M16.007 10.162c-3.402 0-6.163 2.76-6.163 6.163s2.76 6.163 6.163 6.163 6.163-2.76 6.163-6.163c0-3.402-2.76-6.163-6.163-6.163zM16.007 20.323c-2.208 0-3.998-1.79-3.998-3.998s1.79-3.998 3.998-3.998 3.998 1.79 3.998 3.998c0 2.208-1.79 3.998-3.998 3.998z"></path>
<path d="M23.852 9.919c0 0.795-0.644 1.439-1.439 1.439s-1.439-0.644-1.439-1.439 0.644-1.439 1.439-1.439c0.795 0 1.439 0.644 1.439 1.439z"></path>
</symbol>
<symbol id="icon-keyboard_arrow_down" viewBox="0 0 32 32">
<path stroke-linejoin="miter" stroke-linecap="butt" stroke-miterlimit="4" stroke-width="1.3333" d="M9.449 12.031c0.134 0 0.237 0.041 0.341 0.145l6.208 6.244 6.243-6.244c0.104-0.103 0.192-0.133 0.299-0.129 0.126 0.005 0.234 0.048 0.349 0.163 0.104 0.104 0.145 0.207 0.145 0.341s-0.041 0.236-0.145 0.34l-6.559 6.559c-0.072 0.072-0.129 0.107-0.167 0.122-0.047 0.020-0.101 0.031-0.165 0.031-0.033 0-0.062-0.004-0.090-0.009l-0.077-0.022-0.070-0.040c-0.028-0.019-0.059-0.046-0.095-0.082l-6.592-6.591c-0.098-0.098-0.133-0.191-0.129-0.318 0.005-0.143 0.053-0.255 0.163-0.365 0.104-0.104 0.206-0.144 0.34-0.145z"></path>
</symbol>
<symbol id="icon-keyboard_arrow_up" viewBox="0 0 32 32">
<path stroke-linejoin="miter" stroke-linecap="butt" stroke-miterlimit="4" stroke-width="1.3333" d="M16 11.605c0.125 0 0.227 0.038 0.333 0.145l6.591 6.592c0.109 0.109 0.145 0.208 0.145 0.324s-0.035 0.215-0.145 0.324c-0.104 0.104-0.207 0.145-0.341 0.145s-0.236-0.041-0.34-0.145l-0.001-0.001-6.243-6.207-6.241 6.241c-0.104 0.104-0.192 0.133-0.299 0.129-0.126-0.005-0.234-0.047-0.349-0.161-0.104-0.104-0.145-0.207-0.145-0.341s0.040-0.237 0.145-0.341l6.559-6.559c0.107-0.107 0.207-0.144 0.332-0.145z"></path>
</symbol>
<symbol id="icon-logout" viewBox="0 0 32 32">
<path d="M6.072 28.199c-0.613 0-1.145-0.225-1.595-0.676s-0.676-0.982-0.676-1.595v-19.857c0-0.616 0.225-1.149 0.676-1.601s0.982-0.678 1.595-0.678h8.807c0.321 0 0.59 0.111 0.808 0.334s0.327 0.495 0.327 0.816c0 0.322-0.109 0.59-0.327 0.806s-0.487 0.323-0.808 0.323h-8.807v19.857h8.807c0.321 0 0.59 0.11 0.808 0.329s0.327 0.49 0.327 0.812c0 0.322-0.109 0.591-0.327 0.806s-0.487 0.323-0.808 0.323h-8.807zM23.856 17.136h-10.768c-0.32 0-0.59-0.11-0.808-0.329s-0.327-0.49-0.327-0.812c0-0.322 0.109-0.591 0.327-0.806s0.488-0.323 0.808-0.323h10.701l-2.564-2.564c-0.227-0.228-0.334-0.495-0.323-0.8s0.13-0.571 0.357-0.795c0.226-0.229 0.496-0.342 0.81-0.34s0.585 0.117 0.815 0.344l4.529 4.529c0.221 0.228 0.332 0.494 0.332 0.797s-0.111 0.568-0.332 0.794l-4.496 4.496c-0.222 0.226-0.486 0.335-0.792 0.327s-0.577-0.126-0.812-0.352c-0.218-0.227-0.328-0.497-0.331-0.811s0.112-0.586 0.344-0.813l2.531-2.539z"></path>
</symbol>
<symbol id="icon-manage_accounts" viewBox="0 0 32 32">
<path d="M13.332 15.73c-1.526 0-2.774-0.485-3.743-1.454s-1.454-2.217-1.454-3.744 0.485-2.775 1.454-3.745c0.969-0.971 2.217-1.456 3.743-1.456s2.776 0.485 3.749 1.456c0.973 0.97 1.46 2.219 1.46 3.745s-0.487 2.774-1.46 3.744c-0.973 0.969-2.223 1.454-3.749 1.454zM2.467 24.565v-1.077c0-0.837 0.213-1.591 0.639-2.262s1.007-1.176 1.742-1.514c1.287-0.573 2.614-1.042 3.981-1.408s2.766-0.549 4.199-0.549c0.327 0 0.599 0.109 0.817 0.327s0.326 0.488 0.326 0.81c0 0.328-0.11 0.601-0.331 0.82s-0.491 0.329-0.812 0.329c-1.262 0-2.498 0.152-3.708 0.455s-2.383 0.739-3.521 1.308c-0.308 0.176-0.561 0.414-0.761 0.714s-0.3 0.634-0.3 1.001v1.046h8.331c0.32 0 0.59 0.11 0.808 0.329s0.327 0.49 0.327 0.812-0.109 0.591-0.327 0.806c-0.218 0.215-0.487 0.323-0.808 0.323h-8.331c-0.63 0-1.166-0.223-1.608-0.667s-0.663-0.979-0.663-1.604zM22.213 27.385l-0.225-1.409c-0.367-0.106-0.74-0.262-1.118-0.467s-0.695-0.439-0.952-0.701l-1.235 0.259c-0.194 0.050-0.378 0.038-0.553-0.037s-0.311-0.195-0.41-0.362l-0.205-0.349c-0.119-0.194-0.161-0.39-0.128-0.589s0.125-0.371 0.274-0.515l1.076-1.009c-0.050-0.184-0.073-0.45-0.071-0.797s0.026-0.61 0.071-0.788l-1.084-1.027c-0.143-0.12-0.232-0.283-0.266-0.489s0.008-0.394 0.125-0.566l0.207-0.415c0.099-0.169 0.228-0.285 0.389-0.347s0.338-0.070 0.532-0.026l1.276 0.259c0.256-0.256 0.573-0.488 0.952-0.697s0.751-0.363 1.118-0.464l0.225-1.401c0.046-0.247 0.156-0.447 0.33-0.6s0.378-0.23 0.61-0.23h0.3c0.227 0 0.427 0.077 0.6 0.231s0.285 0.351 0.335 0.591l0.228 1.408c0.36 0.101 0.731 0.256 1.112 0.465s0.699 0.441 0.954 0.697l1.244-0.259c0.188-0.044 0.371-0.031 0.547 0.041s0.312 0.194 0.407 0.366l0.204 0.339c0.119 0.201 0.161 0.399 0.125 0.596s-0.129 0.366-0.278 0.51l-1.076 1.017c0.055 0.182 0.081 0.446 0.079 0.792s-0.029 0.611-0.079 0.795l1.074 1.007c0.151 0.129 0.244 0.297 0.28 0.504s-0.004 0.397-0.121 0.568l-0.208 0.416c-0.099 0.172-0.231 0.286-0.394 0.345s-0.342 0.065-0.535 0.021l-1.268-0.259c-0.256 0.261-0.574 0.495-0.955 0.701s-0.752 0.362-1.114 0.467l-0.225 1.401c-0.050 0.245-0.163 0.443-0.338 0.595s-0.377 0.228-0.606 0.228h-0.293c-0.228 0-0.431-0.076-0.607-0.228s-0.286-0.347-0.331-0.587zM23.301 24.030c0.783 0 1.415-0.241 1.897-0.721s0.722-1.115 0.722-1.901-0.241-1.421-0.722-1.902c-0.482-0.481-1.114-0.721-1.898-0.721s-1.417 0.241-1.9 0.722c-0.484 0.481-0.725 1.113-0.725 1.897 0 0.789 0.242 1.424 0.726 1.905s1.118 0.721 1.901 0.721zM13.332 13.459c0.846 0 1.546-0.276 2.1-0.829s0.83-1.252 0.83-2.099c0-0.849-0.276-1.549-0.829-2.101s-1.251-0.827-2.098-0.827c-0.846 0-1.546 0.276-2.1 0.828s-0.83 1.251-0.83 2.097c0 0.848 0.276 1.549 0.829 2.102s1.252 0.83 2.098 0.83z"></path>
</symbol>
<symbol id="icon-menu" viewBox="0 0 32 32">
<path d="M4.936 24.295c-0.321 0-0.59-0.11-0.808-0.329s-0.327-0.493-0.327-0.82c0-0.322 0.109-0.591 0.327-0.807s0.488-0.323 0.808-0.323h22.127c0.321 0 0.591 0.11 0.812 0.329s0.331 0.49 0.331 0.812c0 0.328-0.11 0.599-0.331 0.814s-0.492 0.323-0.812 0.323h-22.127zM4.936 17.136c-0.321 0-0.59-0.11-0.808-0.329s-0.327-0.49-0.327-0.812c0-0.322 0.109-0.591 0.327-0.806s0.488-0.323 0.808-0.323h22.127c0.321 0 0.591 0.11 0.812 0.329s0.331 0.49 0.331 0.812c0 0.322-0.11 0.591-0.331 0.806s-0.492 0.323-0.812 0.323h-22.127zM4.936 9.984c-0.321 0-0.59-0.11-0.808-0.329s-0.327-0.493-0.327-0.82c0-0.322 0.109-0.591 0.327-0.806s0.488-0.323 0.808-0.323h22.127c0.321 0 0.591 0.11 0.812 0.329s0.331 0.49 0.331 0.812c0 0.328-0.11 0.599-0.331 0.815s-0.492 0.323-0.812 0.323h-22.127z"></path>
</symbol>
<symbol id="icon-Relume" viewBox="0 0 32 32">
<path d="M27.64 9.493l-0.187-0.333c-0.241-0.403-0.58-0.738-0.987-0.973l-8.947-5.16c-0.405-0.235-0.865-0.359-1.333-0.36h-0.387c-0.468 0.001-0.928 0.125-1.333 0.36l-8.947 5.173c-0.404 0.234-0.74 0.569-0.973 0.973l-0.187 0.333c-0.235 0.405-0.359 0.865-0.36 1.333v10.333c0.001 0.468 0.125 0.928 0.36 1.333l0.187 0.333c0.24 0.399 0.574 0.734 0.973 0.973l8.96 5.16c0.403 0.24 0.864 0.364 1.333 0.36h0.373c0.468-0.001 0.928-0.125 1.333-0.36l8.947-5.173c0.408-0.228 0.745-0.565 0.973-0.973l0.2-0.333c0.232-0.406 0.356-0.865 0.36-1.333v-10.333c-0.001-0.468-0.125-0.928-0.36-1.333zM15.8 5.333h0.387l7.813 4.507-8 4.613-8-4.613 7.8-4.507zM17.333 26l7.8-4.507 0.2-0.333v-9.013l-8 4.627v9.227z"></path>
</symbol>
<symbol id="icon-service_toolbox" viewBox="0 0 32 32">
<path d="M10.1 7.493v-1.7c0-0.576 0.203-1.070 0.61-1.48s0.899-0.616 1.478-0.616h7.558c0.579 0 1.071 0.205 1.478 0.616s0.61 0.904 0.61 1.48v1.7h2.133c0.432 0 0.833 0.106 1.204 0.319s0.641 0.524 0.813 0.934l3.251 7.709c0.127 0.26 0.21 0.526 0.249 0.798s0.058 0.545 0.058 0.817v6.525c0 0.63-0.222 1.166-0.665 1.608s-0.981 0.663-1.614 0.663h-22.523c-0.63 0-1.166-0.221-1.608-0.663s-0.663-0.978-0.663-1.608v-6.525c0-0.272 0.019-0.545 0.058-0.817s0.119-0.538 0.241-0.798l3.184-7.709c0.172-0.41 0.443-0.721 0.813-0.934s0.772-0.319 1.204-0.319h2.133zM12.188 7.493h7.558v-1.7h-7.558v1.7zM9.538 16.367v-0.567c0-0.283 0.096-0.521 0.289-0.713s0.432-0.287 0.717-0.287c0.285 0 0.522 0.096 0.713 0.287s0.285 0.429 0.285 0.713v0.567h8.915v-0.567c0-0.283 0.097-0.521 0.291-0.713s0.433-0.287 0.718-0.287c0.285 0 0.522 0.096 0.711 0.287s0.283 0.429 0.283 0.713v0.567h4.233l-2.75-6.595h-15.889l-2.751 6.595h4.233zM9.538 18.367h-4.8v6.228h22.523v-6.228h-4.8v0.567c0 0.283-0.096 0.521-0.289 0.712s-0.431 0.288-0.717 0.288c-0.285 0-0.522-0.096-0.713-0.288s-0.285-0.429-0.285-0.712v-0.567h-8.915v0.567c0 0.283-0.097 0.521-0.291 0.712s-0.433 0.288-0.718 0.288c-0.285 0-0.522-0.096-0.711-0.288s-0.283-0.429-0.283-0.712v-0.567z"></path>
</symbol>
<symbol id="icon-star-filled" viewBox="0 0 32 32">
<path d="M15.999 23.257l-6.216 3.749c-0.21 0.127-0.428 0.184-0.654 0.17s-0.428-0.084-0.605-0.211c-0.177-0.127-0.308-0.291-0.394-0.493s-0.104-0.429-0.054-0.684l1.641-7.083-5.482-4.783c-0.199-0.171-0.321-0.365-0.365-0.58s-0.038-0.425 0.017-0.63c0.050-0.204 0.164-0.377 0.344-0.518s0.396-0.222 0.65-0.245l7.249-0.633 2.808-6.691c0.1-0.232 0.25-0.404 0.452-0.518s0.405-0.17 0.609-0.17 0.407 0.057 0.609 0.17c0.202 0.113 0.353 0.286 0.452 0.518l2.808 6.691 7.257 0.633c0.249 0.022 0.463 0.104 0.642 0.245s0.294 0.313 0.344 0.518c0.055 0.204 0.061 0.414 0.017 0.63s-0.165 0.409-0.365 0.58l-5.482 4.783 1.641 7.083c0.050 0.254 0.032 0.482-0.054 0.684s-0.217 0.366-0.394 0.493c-0.177 0.127-0.379 0.198-0.605 0.211s-0.445-0.043-0.654-0.17l-6.216-3.749z"></path>
</symbol>
<symbol id="icon-star" viewBox="0 0 32 32">
<path d="M10.878 23.674l5.122-3.062 5.122 3.095-1.376-5.798 4.504-3.92-5.939-0.517-2.311-5.472-2.311 5.447-5.939 0.509 4.504 3.912-1.376 5.806zM15.999 23.257l-6.216 3.749c-0.21 0.127-0.428 0.184-0.654 0.17s-0.428-0.084-0.605-0.211c-0.177-0.127-0.308-0.291-0.394-0.493s-0.104-0.429-0.054-0.684l1.641-7.083-5.482-4.783c-0.199-0.171-0.321-0.365-0.365-0.58s-0.038-0.425 0.017-0.63c0.050-0.204 0.164-0.377 0.344-0.518s0.396-0.222 0.65-0.245l7.249-0.633 2.808-6.691c0.1-0.232 0.25-0.404 0.452-0.518s0.405-0.17 0.609-0.17 0.407 0.057 0.609 0.17c0.202 0.113 0.353 0.286 0.452 0.518l2.808 6.691 7.257 0.633c0.249 0.022 0.463 0.104 0.642 0.245s0.294 0.313 0.344 0.518c0.055 0.204 0.061 0.414 0.017 0.63s-0.165 0.409-0.365 0.58l-5.482 4.783 1.641 7.083c0.050 0.254 0.032 0.482-0.054 0.684s-0.217 0.366-0.394 0.493c-0.177 0.127-0.379 0.198-0.605 0.211s-0.445-0.043-0.654-0.17l-6.216-3.749z"></path>
</symbol>
<symbol id="icon-star_half" viewBox="0 0 32 32">
<path d="M15.999 7.999v12.613l5.122 3.095-1.376-5.798 4.504-3.92-5.939-0.517-2.311-5.472zM15.999 23.257l-6.216 3.749c-0.21 0.127-0.428 0.184-0.654 0.17s-0.428-0.084-0.605-0.211c-0.177-0.127-0.308-0.291-0.394-0.493s-0.104-0.429-0.054-0.684l1.641-7.083-5.482-4.783c-0.199-0.171-0.321-0.365-0.365-0.58s-0.038-0.425 0.017-0.63c0.050-0.204 0.164-0.377 0.344-0.518s0.396-0.222 0.65-0.245l7.249-0.633 2.808-6.691c0.1-0.232 0.25-0.404 0.452-0.518s0.405-0.17 0.609-0.17 0.407 0.057 0.609 0.17c0.202 0.113 0.353 0.286 0.452 0.518l2.808 6.691 7.257 0.633c0.249 0.022 0.463 0.104 0.642 0.245s0.294 0.313 0.344 0.518c0.055 0.204 0.061 0.414 0.017 0.63s-0.165 0.409-0.365 0.58l-5.482 4.783 1.641 7.083c0.050 0.254 0.032 0.482-0.054 0.684s-0.217 0.366-0.394 0.493c-0.177 0.127-0.379 0.198-0.605 0.211s-0.445-0.043-0.654-0.17l-6.216-3.749z"></path>
</symbol>
</defs>
</svg>

