<svg xmlns="http://www.w3.org/2000/svg" viewBox="0 0 37 32">
  <path d="M6.737 28.333h11.34v-2.948h-11.34v2.948zM7.781 11.791h8.421c0.243 0 0.456-0.091 0.639-0.274s0.274-0.396 0.274-0.64c0-0.244-0.091-0.459-0.274-0.644s-0.395-0.277-0.639-0.277h-8.421c-0.252 0-0.468 0.092-0.65 0.276s-0.273 0.399-0.273 0.645c0 0.246 0.091 0.459 0.273 0.641s0.399 0.272 0.65 0.272zM7.781 7.51h8.421c0.243 0 0.456-0.091 0.639-0.273s0.274-0.397 0.274-0.645c0-0.248-0.091-0.463-0.274-0.645s-0.395-0.273-0.639-0.273h-8.421c-0.252 0-0.468 0.091-0.65 0.274s-0.273 0.395-0.273 0.639c0 0.251 0.091 0.468 0.273 0.65s0.399 0.273 0.65 0.273zM23.962 13.896v-2.717h3.999v-4.891h-3.999v-2.718h3.848c0.735 0 1.374 0.247 1.915 0.742s0.846 1.099 0.913 1.814v1.263h3.739c0.383 0 0.706 0.132 0.969 0.395s0.395 0.587 0.395 0.971c0 0.362-0.132 0.678-0.395 0.948s-0.586 0.404-0.969 0.404h-3.759v1.263c-0.067 0.708-0.37 1.306-0.909 1.795s-1.172 0.732-1.9 0.732h-3.848zM17.235 22.668h-2.717v-7.93h6.737v-12.011h-14.316c-1.179 0-2.175 0.407-2.989 1.221s-1.221 1.811-1.221 2.989v3.59c0 1.179 0.407 2.175 1.221 2.989s1.811 1.221 2.989 1.221h3.368v7.93h-2.728v-5.222h-0.842c-1.873-0.047-3.464-0.744-4.773-2.090s-1.964-2.956-1.964-4.829v-3.59c0-1.904 0.679-3.537 2.038-4.897s2.992-2.041 4.9-2.041h14.144c0.799 0 1.478 0.28 2.038 0.84s0.84 1.24 0.84 2.038v11.709c0 0.798-0.28 1.478-0.84 2.038s-1.24 0.84-2.038 0.84h-3.848v5.202zM6.166 31.061c-0.601 0-1.109-0.211-1.524-0.632s-0.622-0.93-0.622-1.525v-4.090c0-0.596 0.207-1.103 0.622-1.52s0.923-0.626 1.524-0.626h12.482c0.599 0 1.109 0.209 1.528 0.626s0.629 0.924 0.629 1.52v4.090c0 0.595-0.21 1.103-0.629 1.525s-0.928 0.632-1.528 0.632h-12.482z"/>
</svg>

